<svg version="1.1" id="Layer_1" xmlns="http://www.w3.org/2000/svg" xmlns:xlink="http://www.w3.org/1999/xlink" x="0px" y="0px"
	 width="100%" viewBox="0 0 111 105" enable-background="new 0 0 111 105" xml:space="preserve">
<path fill="#000000" opacity="1.000000" stroke="none" 
	d="
M62.751236,1.248803 
	C78.317154,1.000000 93.634697,1.053740 108.951057,0.943674 
	C111.324471,0.926619 112.083015,1.319297 112.074028,3.945384 
	C111.961159,36.910175 111.947189,69.875717 112.090172,102.840279 
	C112.103004,105.798607 111.254913,106.072540 108.666008,106.065292 
	C73.869705,105.967850 39.072914,105.961937 4.276696,106.074135 
	C1.568559,106.082855 0.905990,105.617950 0.917196,102.782990 
	C1.046846,69.984810 1.070284,37.185558 0.891657,4.387841 
	C0.873726,1.095539 1.926120,0.914416 4.605939,0.940278 
	C18.090458,1.070408 31.576910,1.000000 45.531342,1.000000 
	C49.568336,3.361573 46.108803,4.964503 44.971588,6.850678 
	C46.886738,7.066349 48.308041,6.513705 49.714886,6.147334 
	C53.810078,5.080865 55.027973,8.248524 55.786148,10.822070 
	C56.727356,14.016906 53.830368,14.348198 51.564461,14.466792 
	C47.394104,14.685061 43.454903,16.043835 39.404705,16.817684 
	C32.204563,18.193375 28.717113,28.282255 32.816551,35.729378 
	C32.905163,36.393612 32.912762,36.661186 32.798206,37.305473 
	C27.410162,42.356884 27.783966,44.610592 34.310608,47.412956 
	C37.835510,48.926449 41.421677,50.245312 45.228153,50.894714 
	C48.796669,51.503513 51.675091,50.473412 52.883274,46.948380 
	C54.186615,43.145699 56.954071,41.536953 60.510151,40.570461 
	C64.747673,39.418766 68.756607,37.781654 71.291588,33.884575 
	C74.074921,29.605707 72.941399,26.462521 67.949104,25.603163 
	C63.486576,24.834997 60.948044,22.121130 58.970345,18.467489 
	C58.133186,16.920906 57.118839,15.307637 58.737545,13.737675 
	C60.126942,12.390120 61.900948,12.537287 63.341702,13.546941 
	C67.861755,16.714514 72.749184,16.338949 77.752213,15.357648 
	C78.736412,15.164605 79.731110,14.991623 80.604561,14.489197 
	C82.097054,13.630688 83.591095,12.550269 83.070641,10.609679 
	C82.552994,8.679561 80.763641,9.013102 79.297340,9.252434 
	C73.301689,10.231051 68.258965,7.489683 63.111588,5.171320 
	C61.160011,4.292335 60.671257,3.059122 62.751236,1.248803 
z"/>
<path fill="#8A1A00" opacity="1.000000" stroke="none" 
	d="
M29.382023,35.297462 
	C24.897142,31.058702 28.210346,26.107481 29.702351,22.220318 
	C31.523254,17.476263 34.228653,12.307051 41.625103,13.627666 
	C44.574196,14.154220 47.839996,11.612676 51.264122,11.938370 
	C51.979927,12.006454 52.640606,11.717769 52.243824,10.792525 
	C51.902149,9.995790 52.171101,8.771181 50.538525,8.872452 
	C48.665283,8.988650 46.969669,9.444747 45.320477,10.290839 
	C43.858669,11.040798 42.471256,12.024258 40.701675,11.965322 
	C39.529896,11.926298 38.291634,12.018520 37.596340,10.823955 
	C36.724159,9.325487 37.816231,8.166365 38.692219,7.363266 
	C40.988155,5.258368 44.117809,4.213525 46.067219,1.352308 
	C51.354931,1.000000 56.709858,1.000000 62.532394,1.000000 
	C67.130470,5.475792 72.502052,6.692423 78.285683,6.771841 
	C78.745125,6.778149 79.267647,6.175018 79.662476,6.268891 
	C82.702309,6.991642 86.386375,2.692835 88.608871,6.538230 
	C90.333305,9.521891 82.927620,17.823919 78.987778,18.001440 
	C77.991211,18.046343 76.976219,17.997662 76.001961,18.172136 
	C68.695084,19.480688 68.697617,19.494820 60.884655,15.464025 
	C62.008373,19.950401 64.139694,22.733423 68.887238,23.030085 
	C71.494499,23.193007 74.960487,21.718885 76.145760,25.551029 
	C77.294121,29.263844 75.713409,32.681984 73.718231,35.632294 
	C71.024849,39.615032 66.941307,42.075184 62.278122,42.874043 
	C57.913330,43.621784 55.623146,45.673958 54.810986,50.024982 
	C54.267529,52.936470 53.519375,55.016434 48.934574,54.315102 
	C41.581776,53.190357 34.995068,50.525764 28.297457,47.729584 
	C24.660181,46.211063 23.590052,44.189823 25.593479,40.666893 
	C26.455576,39.150948 26.278454,37.040276 28.575254,36.114983 
	C29.015749,35.984600 29.215912,36.687870 29.199951,36.056419 
	C29.193130,35.786533 29.069389,35.512363 29.382023,35.297462 
z"/>
<path fill="#000000" opacity="1.000000" stroke="none" 
	d="
M56.283470,23.167583 
	C57.869144,23.467806 58.164608,24.377052 57.520790,25.288166 
	C56.856861,26.227737 55.781887,26.066778 55.066029,25.239258 
	C54.071690,24.089828 55.071487,23.620415 56.283470,23.167583 
z"/>
<path fill="#000000" opacity="1.000000" stroke="none" 
	d="
M29.529442,35.546291 
	C29.966848,35.757843 30.205059,36.149452 30.443270,36.541058 
	C30.020199,36.527393 29.597130,36.513733 29.053268,36.293602 
	C29.065067,35.966873 29.197659,35.846611 29.529442,35.546291 
z"/>
</svg>